<svg width="100" height="100" viewBox="0 0 100 100" fill="none" xmlns="http://www.w3.org/2000/svg">
  <!-- Left Arm (Light Blue) -->
  <path
    d="M50 85C30 75 15 55 15 35C15 20 25 10 40 10C45 10 50 12 55 15"
    stroke="#4FC3F7"
    stroke-width="8"
    stroke-linecap="round"
  />
  <circle cx="40" cy="10" r="6" fill="#4FC3F7" />

  <!-- Right Arm (Green) -->
  <path
    d="M50 85C70 75 85 55 85 35C85 20 75 10 60 10C55 10 50 12 45 15"
    stroke="#00A651"
    stroke-width="8"
    stroke-linecap="round"
  />
  <circle cx="60" cy="10" r="6" fill="#00A651" />

  <!-- House (Dark Blue) -->
  <path
    d="M35 55L50 40L65 55V75H35V55Z"
    fill="#005696"
  />
  <path
    d="M30 55L50 35L70 55"
    stroke="#005696"
    stroke-width="4"
    stroke-linecap="round"
    stroke-linejoin="round"
  />
</svg>
